# xmcd
#
# Track frame offsets: 
#        150
#        17896
#        28491
#        41392
#        57192
#        70269
#        85378
#        98732
#        110453
#        120005
#        129422
#        147335
#        161858
#        173202
#        181438
#        206743
#        221714
#        234833
#        256254
#        276883
#        287503
#        303317
#        318063
#        333772
#        346459
#
# Disc length: 4769 seconds
#
# Revision: 0
# Processed by: cddbd v1.5.2PL0 Copyright (c) Steve Scherf et al.
# Submitted via: ExactAudioCopy v1.0b3
#
DISCID=68129f19
DTITLE=The Hitmen - Dancing Time '78-'79
DYEAR=2010
DGENRE=Rock
TTITLE0=Dancing Time
TTITLE1=You Got A Hard Time Coming
TTITLE2=War Or Hands Of Time
TTITLE3=Gonna Be Late
TTITLE4=No Clue
TTITLE5=15 Hours (live)
TTITLE6=Waiting For Days
TTITLE7=White Knife Gleaming
TTITLE8=Crazy Over You
TTITLE9=High School
TTITLE10=Suspicious Minds
TTITLE11=Dancing Time
TTITLE12=Hold On Tight
TTITLE13=Strychnine
TTITLE14=Cold December
TTITLE15=Night Is Over
TTITLE16=Didn't Tell The Man
TTITLE17=Shake Some Acrtion
TTITLE18=Gonna Be Late (live)
TTITLE19=Pop's All Gone-Kids Can't Dance
TTITLE20=Hit Me (live)
TTITLE21=Back To Country
TTITLE22=You Won't Understand
TTITLE23=How Could He Resist
TTITLE24=Broken Guitars
EXTD=
EXTT0=
EXTT1=
EXTT2=
EXTT3=
EXTT4=
EXTT5=
EXTT6=
EXTT7=
EXTT8=
EXTT9=
EXTT10=
EXTT11=
EXTT12=
EXTT13=
EXTT14=
EXTT15=
EXTT16=
EXTT17=
EXTT18=
EXTT19=
EXTT20=
EXTT21=
EXTT22=
EXTT23=
EXTT24=
PLAYORDER=
